<?xml version="1.0" encoding="UTF-8"?><svg xmlns="http://www.w3.org/2000/svg" viewBox="0 0 609.15 469.42"><g id="a"/><g id="b"><g id="c"><g><polygon points="96.36 290.41 78.13 260.18 21.33 290.77 55.04 352.57 21.33 393.3 0 419.6 0 469.42 104.48 469.42 113.96 445.75 111.19 423.95 78.72 433.63 57.38 413.14 69.84 400.16 83.62 413.38 111.15 405.18 135.3 364.57 135.3 327.53 153.67 309.75 140.72 294.01 96.36 290.41"/><polygon points="482.21 438.37 476 440.91 476 440.91 444.71 453.62 437.94 436.94 476 421.48 526.32 373.7 534.75 365.69 541.58 359.21 544.19 379.26 550.94 350.33 558.3 383.18 562 339.82 515.78 277.89 493.26 314.63 484.37 296.86 519.33 234.71 476 186.59 452.56 160.13 430.91 92.76 397.36 125.43 289.59 111.55 261.57 82.46 274.54 69.97 298.17 94.51 391.04 106.46 422.48 75.85 369.69 14.05 328.95 0 281.19 47.76 180.06 40.73 139.09 121.47 207.78 146.82 244.93 126.89 253.44 142.75 209.15 166.51 129.45 137.1 59.26 192.44 94.37 251.43 94 251.63 107.01 273.22 136.15 275.58 191.21 240.46 197.22 203.08 225.67 191.53 247 290.49 262.11 177.74 278.41 237.16 292.33 177.74 310.11 167.53 316.33 177.74 356.48 177.74 390.66 219.17 419.52 212.61 415.39 199.02 432.6 193.78 442.38 225.87 383.83 239.18 389.22 259.97 404.33 279.53 395.44 299.97 410.56 332.86 398.2 355.23 421.13 343.2 429.49 359.13 396.23 376.59 410.56 404.86 376.85 449.49 391 469.42 476 469.42 476 469.42 609.15 469.42 538.26 392.71 527.89 421.48 519 403.93 482.21 438.37"/></g></g></g></svg>