<?xml version="1.0" encoding="UTF-8"?><svg xmlns="http://www.w3.org/2000/svg" viewBox="0 0 721.49 721.49"><defs><style>.d{fill:none;stroke-width:60px;}.d,.e{stroke:#000;stroke-miterlimit:10;}.e{stroke-width:80px;}</style></defs><g id="a"/><g id="b"><g id="c"><circle class="d" cx="360.74" cy="360.74" r="330.74"/><polyline class="e" points="582.73 118.91 357.38 360.74 135.11 602.57"/><g><path d="M156.17,416.25c-7.62,15.16-7.01,30.16-.61,45.15,3.28,7.69,8.26,15.3,14.64,22.53l33.44-36.55c-18.07-6.97-34.04-17.83-47.47-31.14Z"/><path d="M216.38,433.47l135.68-148.27c-20.29-11.56-39.05-24.28-54.58-39.25-29.61-28.56-46.66-66.53-37.68-116.66-.67,0-1.35,0-2.02,0h0c-20.63,.2-37.36,8.54-50.67,22.23-15.71,16.15-26.18,40.11-29.38,66.3-6.4,52.39,15.47,112.11,76.73,137.04l-6.57,16.18c-59.94-24.39-87.18-79.22-88.59-131.78-16.23,10.16-25.8,25.28-30.23,43.4-5.35,21.92-2.55,48.17,7.39,72.76,14.21,35.16,42.21,66.32,79.92,78.06Z"/><path d="M564.84,448.79c-.03-.25-.06-.51-.09-.76-3.08-24.1-14.79-43.14-32.1-60.23-20.2-19.94-48.58-36.47-79.53-52.11l-180.61,197.37c30.93,3.46,63.98-.97,94.33-16.81-5.08-19.62-2.48-42.13,10.6-64.78,21.23-36.76,56.81-46.57,82.6-36.16,12.9,5.21,23.44,15.47,27.92,29.12,4.48,13.65,2.65,30.19-6.89,47.02-11.03,19.45-31.91,26.06-47.9,20.77-7.99-2.65-15.16-8.82-17.64-17.64-2.48-8.82-.13-19.03,6.6-29.27l14.57,9.61c-4.9,7.44-5.14,12.23-4.38,14.92,.76,2.7,2.65,4.58,6.31,5.78,7.31,2.42,20.08-.14,27.25-12.79,7.65-13.5,8.24-24.47,5.46-32.95-2.78-8.47-9.2-14.91-17.84-18.4-17.28-6.98-43.12-2.12-60.93,28.71-13.11,22.7-13.43,42.41-6.28,59.29l2.63,4.09c-.18,.12-.37,.23-.56,.35,.24,.46,.48,.94,.73,1.4,1.82,3.33,3.94,6.55,6.37,9.61,.09,.12,.2,.23,.29,.35,.37,.46,.76,.92,1.14,1.37,10.76,12.76,26.5,22.78,44.22,28.3,22.67,7.06,48.22,6.68,69.95-3.5,21.73-10.18,40.13-29.88,49.25-63.91,3.11-11.6,4.75-22.22,5.14-32.07,0-.39,.02-.78,.03-1.17,.08-4.77-.08-9.58-.53-14.4-.03-.38-.08-.76-.12-1.14Z"/></g></g></g></svg>