<?xml version="1.0" encoding="UTF-8"?><svg xmlns="http://www.w3.org/2000/svg" viewBox="0 0 885.12 706.7"><g id="a"/><g id="b"><g id="c"><g><path d="M160.52,391.39c2.48,6.04,11.21,16.38,11.21,16.38l19.4,17.68c5.5,5.15,10.94,9.46,16.22,13.09,6.16,.1,11.42,1.14,15.71,3.14,4.78-2.1,9.9-3.16,15.3-3.16,15.41,0,28.94,6.2,39.14,17.93,.93,1.07,1.81,2.17,2.65,3.29,1.04-1.28,2.13-2.54,3.3-3.77,13.68-14.43,28.01-17.46,37.62-17.46,5.37,0,10.47,.94,15.19,2.8,4.23-2.07,9.26-3.11,15.03-3.11,6.08,0,10.66,.58,14.41,1.83,4.17,1.39,7.77,3.77,10.57,6.87,.19-.15,.39-.3,.58-.45,8.79-6.4,20.45-9.51,35.65-9.51,9.8,0,19.84,2.29,29.83,6.8,1.73-1.03,3.66-2,5.83-2.88,5.46-2.22,10.26-3.3,14.65-3.3,5.63,0,10.63,1.46,14.88,4.34,2.41,1.64,4.44,3.48,6.07,5.49,7.78-7.46,15.66-9.05,20.96-9.05,6.84,0,13.22,2.06,18.46,5.95,1.48,1.1,2.82,2.24,4.02,3.41,7.43-8.94,16.83-10.13,21.29-10.13s9.03,1.05,13.48,3.13c5.45,2.42,9.47,5.27,12.41,8.24,5.61-4.25,11.63-7.41,17.99-9.46,11.11-38.61-4.42-64.91-4.42-64.91-.54-4.74-15.74-19.29-15.74-19.29,5.18-7.11,3.78-10.56,3.78-10.56,.11-4.85-4.63-10.13-4.63-10.13,2.15-.86,2.26-1.08,2.26-1.08,16.82-2.81,18.86-7.22,18.86-7.22,3.56-.43-1.51-6.47-1.51-6.47-4.1-3.66-8.51-13.15-8.51-13.15,5.39,4.85,14.23,10.02,14.23,10.02,11.75,7.97,23.5,5.06,23.5,5.06,13.68-8.08,27.8-12.29,27.8-12.29,16.81-6.36,12.94-10.88,12.94-10.88-7.87-1.29-18.11-6.25-18.11-6.25-7.44-4.85-14.44-7.11-14.44-7.11-5.5-4.1-7.54-4.42-7.54-4.42-2.26-2.05-6.79-4.1-6.79-4.1-2.58-1.51-3.23-2.69-3.23-2.69,2.26,1.19,4.95,1.62,4.95,1.62,6.26,2.8,31.04,2.26,31.04,2.26,18.75-1.72,.65-10.99,.65-10.99-10.45-3.78-30.39-20.37-30.39-20.37-4.42-5.39-30.82-23.28-30.82-23.28l-21.34-16.27c-23.28-24.68-47.99-31.28-47.99-31.28,4.04-5.82,4.69-12.53,4.69-12.53-.89-6.06-16.32-12.45-16.32-12.45,3.72-3.64,4.12-8,4.12-8,8.16-4.2,7.97-11.07,7.97-11.07,39.12-2.8,64.45-52.38,64.45-52.38,10.78,2.91,17.68-3.67,17.68-3.67,11.96-7.33-4.31-29.42-4.31-29.42,8.4-8.08-.76-19.72-.76-19.72-10.34-10.88-22.74-2.37-22.74-2.37C526.78-10.18,503.88,2.16,503.88,2.16c-8.62,2.53-8.57,9.76-8.57,9.76-.49,5.66,7.17,17.03,7.17,17.03-12.29,9.97-21.61,30.29-21.61,30.29-13.79,31.47,1.08,53.91,1.08,53.91-2.58,1.21-4.69,5.74-4.69,5.74-13.99,5.33-11.32,25.62-11.32,25.62-7.44,.16-9.05,2.18-9.05,2.18-4.6,6.95-6.06,14.06-6.06,14.06-12.04-2.02-25.78,7.54-25.78,7.54-17.25,11.21-86,25.43-110.15,26.08-24.15,.65-45.05,12-45.05,12l.73,4.59h-.04l-.68,.77-5.22,.19c-20.91,9.05-16.06,14.55-16.06,14.55,6.04,10.24,33.48,10.2,33.48,10.2l-1.36,.47c-26.41,9.59-41.61,17.24-41.61,17.24,3.88,20.81,44.84,25.76,44.84,25.76,10.56,9.17,23.28,11.21,23.28,11.21-5.06,10.56-8.51,26.51-8.51,26.51-3.24,2.37-10.13,4.42-10.13,4.42l7.01,6.25c-3.56,10.13-4.31,21.02-4.31,21.02-5.82-4.42-9.7-12.61-9.7-12.61,.22,3.88-3.23,11.1-3.23,11.1-8.62,20.92-5.93,24.15-5.93,24.15,6.15,6.79,4.31,8.19,4.31,8.19-3.01,.33-4.42,1.29-4.42,1.29-4.31,2.8-20.69,3.99-20.69,3.99-10.99,2.58-42.68-5.28-42.68-5.28-11.64-4.1-29.32-5.93-29.32-5.93-20.04-.86-26.73,4.74-26.73,4.74-1.94,.86-.97,3.34-.97,3.34,5.28,4.2,8.62,8.84,8.62,8.84Z"/><path d="M540.02,602.26c5.71,15.36,10.24,19.5,10.24,19.5,1.14,1.29,2.75,.65,2.75,.65,1.72-2.69,3.29-6.09,3.29-6.09,6.31-8.24,8.08-16.81,8.08-16.81,5.98-10.51,14.06-42.19,14.06-42.19,1.24-3.1,2.06-5.9,2.61-8.24-8.34-4.7-15.46-11.35-21.15-19.85-.14-.21-.28-.43-.42-.65l-2.25,5.47c-3.06,8.58-8.64,15.14-16.15,19l-.61,.3c-3.89,1.81-8.36,2.73-13.31,2.73-6.42,0-12.64-2.3-17.98-6.66-1.35-1.09-2.58-2.24-3.69-3.42-.38,.42-.76,.82-1.15,1.22-5.8,5.8-13.04,8.87-20.94,8.87-7.31,0-13.98-2.35-19.31-6.79-4.23-3.52-7.3-7.52-9.15-11.9-3.58,5.52-8.32,9.84-14.16,12.85l-.38,.19c-9.01,4.37-19.99,6.58-32.63,6.58-9.3,0-18.38-1.88-27.1-5.58-2.92,9.35-8.23,17.54-15.77,24.19-11.56,10.19-24.89,15.35-39.61,15.35-10.77,0-21.15-2.64-30.86-7.84-4.94-2.65-19.98-10.71-19.98-25.86,0-1.31,.09-2.61,.24-3.88-1.42,.49-2.97,.91-4.64,1.24,3.86,14.36,9.61,31.15,16.75,38.5,13.66,14.06,22.71,20.12,21.74,18.35-.97-1.78-1.05-12.45-1.05-12.45,0,0,7.19,10.91,22.47,18.59s8.81,18.91,8.81,18.91c-2.67,6.22-16.09,17.54-16.09,17.54-13.74-1.7-21.34,6.14-21.34,6.14-9.94,8.65-8,14.55-8,14.55,2.02,.64,4.04-.41,4.04-.41,6.47-2.42,20.61-1.62,20.61-1.62-.49,.57-.73,1.94-.73,1.94-2.34,19.88,2.18,20.29,2.18,20.29,4.36-3.89,12.53-7.12,12.53-7.12,5.57-1.21,15.52-4.45,15.52-4.45,.73,16.65,5.5,16.57,5.5,16.57,1.62-2.26,8.97-6.47,8.97-6.47,6.87-3.48,18.99-13.01,18.99-13.01,8.17-4.53,11.32-9.38,11.32-9.38,8.4-7.35-2.4-34.38-2.4-34.38,.97-4.74,5.63-12.67,5.63-12.67,13.34,14.8,17.87,14.39,17.87,14.39l17.95-28.61c13.9-.65,21.67,2.83,21.67,2.83,15.28,5.66,21.74,25.22,21.74,25.22,2.42,5.66,8.65,9.3,8.65,9.3-.49,1.46-.57,2.75-.57,2.75-2.18,14.71,7.44,25.54,7.44,25.54,0,0,5.01,7.52,10.1,17.22,5.09,9.7,7.76,13.98,7.76,13.98h1.22c1.53-2.12,3.23-4.12,3.23-4.12,8-11.08,5.58-22.31,5.58-22.31l1.37,.24c2.75,2.42,12.37,7.6,12.37,7.6,9.13,4.45,13.33,10.75,13.33,10.75,1.05,.89,1.53,.41,1.53,.41,6.31-11.48,1.86-22.63,1.86-22.63,8.65,1.78,19.72,10.75,19.72,10.75,1.61,1.38,2.18,0,2.18,0,4.77-10.99,.89-20.29,.89-20.29-.89-9.14-19.56-13.74-19.56-13.74-6.06-2.02-8.73-3.8-8.73-3.8-8.49-7.03-10.1-16.81-10.1-16.81,1.54-2.66,2.18-5.41,2.18-5.41,1.53-2.18,.84-14.77,.84-14.77,1.08-7.97,3.99-10.29,3.99-10.29Z"/></g><g><path d="M84.28,447.37c2.7,5.51,4.05,11.63,4.05,18.38s-1.35,12.85-4.05,18.3c-2.7,5.45-6.18,9.79-10.44,13.01-8.62,6.65-17.55,9.97-26.79,9.97H27.57v17.6c0,2.39-.08,4.18-.23,5.37-.16,1.2-.65,2.57-1.48,4.13-1.46,2.8-5.51,4.21-12.15,4.21-7.27,0-11.53-1.92-12.77-5.76-.62-1.76-.94-4.46-.94-8.1v-86.46c0-2.39,.08-4.18,.23-5.37,.16-1.19,.65-2.57,1.48-4.13,1.45-2.8,5.5-4.21,12.15-4.21H47.2c9.14,0,18.02,3.33,26.64,9.97,4.26,3.22,7.74,7.58,10.44,13.08Zm-27.88,28.66c3.01-2.28,4.52-5.71,4.52-10.28s-1.51-8.02-4.52-10.36c-3.01-2.34-6.13-3.51-9.35-3.51H27.57v27.57h19.63c3.12,0,6.18-1.14,9.19-3.43Z"/><path d="M151.73,465.13c.62-5.81,4.72-8.72,12.31-8.72,4.05,0,7.06,.31,9.04,.93,1.97,.62,3.35,1.71,4.13,3.27s1.25,2.94,1.4,4.13c.16,1.19,.23,2.99,.23,5.37v54.52c0,2.39-.08,4.18-.23,5.37-.16,1.2-.6,2.57-1.32,4.13-1.46,2.7-5.01,4.05-10.67,4.05s-9.45-.7-11.37-2.1c-1.92-1.4-3.04-3.45-3.35-6.15-3.84,5.5-10.26,8.26-19.24,8.26s-17.32-4.1-25-12.31c-7.69-8.2-11.53-17.73-11.53-28.58s3.87-20.35,11.61-28.51c7.74-8.15,16.23-12.23,25.47-12.23,3.53,0,6.75,.62,9.66,1.87,2.91,1.25,4.93,2.42,6.08,3.5,1.14,1.09,2.08,2.16,2.8,3.19Zm-28.35,32.4c0,3.43,1.35,6.52,4.05,9.27,2.7,2.75,5.97,4.13,9.81,4.13s7.03-1.4,9.58-4.21c2.54-2.8,3.82-5.89,3.82-9.27s-1.22-6.52-3.66-9.42c-2.44-2.91-5.71-4.36-9.81-4.36s-7.43,1.46-9.97,4.36c-2.55,2.91-3.82,6.08-3.82,9.5Z"/><path d="M236.94,456.41c10.38,0,19.03,3.97,25.94,11.92,6.91,7.95,10.36,17.63,10.36,29.05v27.42c0,2.39-.08,4.18-.23,5.38-.16,1.2-.6,2.52-1.32,3.97-1.46,2.8-5.51,4.21-12.15,4.21-7.38,0-11.63-1.92-12.77-5.76-.62-1.76-.94-4.41-.94-7.94v-27.42c0-4.26-1.22-7.58-3.66-9.97-2.44-2.39-5.71-3.58-9.81-3.58s-7.43,1.25-9.97,3.74c-2.55,2.49-3.82,5.76-3.82,9.81v27.57c0,2.39-.08,4.18-.23,5.38-.16,1.2-.65,2.52-1.48,3.97-1.35,2.8-5.35,4.21-12,4.21s-10.54-1.4-11.99-4.21c-.73-1.56-1.17-2.93-1.32-4.13-.16-1.19-.23-2.98-.23-5.37v-55.15c0-2.28,.08-4.02,.23-5.22,.16-1.19,.65-2.52,1.48-3.97,1.45-2.59,5.45-3.89,11.99-3.89s10.23,1.2,11.68,3.58c1.04,1.77,1.56,3.89,1.56,6.39,.41-.72,1.35-1.76,2.8-3.12,1.45-1.35,2.85-2.44,4.21-3.27,3.53-2.39,7.42-3.58,11.68-3.58Z"/><path d="M337.72,528.22c-3.95,5.19-10.23,7.79-18.85,7.79s-16.7-3.97-24.22-11.92c-7.53-7.95-11.29-17.21-11.29-27.81s3.79-19.89,11.37-27.88c7.58-8,15.89-12,24.92-12,3.53,0,6.75,.65,9.66,1.95,2.91,1.3,4.91,2.49,6,3.58,1.09,1.09,1.95,2.1,2.57,3.04,.31-2.91,1.38-5.11,3.19-6.62,1.82-1.5,4.75-2.26,8.8-2.26s7.01,.31,8.88,.93c1.87,.62,3.19,1.69,3.97,3.19,.78,1.51,1.25,2.83,1.4,3.97,.16,1.14,.23,2.91,.23,5.3v64.49c0,11.94-4.16,21.58-12.46,28.9-8.31,7.32-17.66,10.98-28.04,10.98-7.89,0-15.42-1.92-22.59-5.76-7.17-3.84-10.75-7.32-10.75-10.44,0-4.05,1.56-7.63,4.67-10.75,1.97-2.18,3.51-3.69,4.6-4.52,1.09-.83,2.36-1.25,3.82-1.25s2.96,.62,4.52,1.87c4.99,3.84,10.38,5.76,16.2,5.76,3.95,0,7.17-1.56,9.66-4.67,2.49-3.12,3.74-6.85,3.74-11.22v-4.67Zm-27.73-31.86c0,3.38,1.32,6.41,3.97,9.11,2.65,2.7,5.87,4.05,9.66,4.05s6.93-1.38,9.42-4.13c2.49-2.75,3.74-5.76,3.74-9.04s-1.19-6.33-3.58-9.19c-2.39-2.86-5.61-4.28-9.66-4.28s-7.32,1.4-9.81,4.21c-2.49,2.8-3.74,5.9-3.74,9.27Z"/><path d="M377.45,531.18c-1.97-1.25-2.96-3.22-2.96-5.92s1.97-6.8,5.92-12.31c1.14-1.76,2.98-2.65,5.53-2.65s6,1.27,10.36,3.82c4.36,2.55,8.31,3.82,11.84,3.82,6.33,0,9.5-1.25,9.5-3.74,0-1.97-3.48-3.43-10.44-4.36-6.54-.93-13.04-3.37-19.47-7.32-3.01-1.87-5.51-4.8-7.48-8.8-1.97-4-2.96-8.75-2.96-14.25,0-16.41,11.27-24.61,33.8-24.61,7.37,0,14.96,1.77,22.74,5.3,3.63,1.66,5.45,3.74,5.45,6.23s-1.14,5.56-3.43,9.19c-2.29,3.64-4.62,5.45-7.01,5.45-1.25,0-3.56-.78-6.93-2.34-3.38-1.56-7.04-2.34-10.98-2.34-6.13,0-9.19,1.14-9.19,3.43,0,3.12,3.53,5.14,10.59,6.08,6.85,.73,13.5,2.7,19.94,5.92,3.01,1.46,5.53,3.97,7.55,7.55,2.03,3.58,3.04,8.08,3.04,13.48s-1.01,10-3.04,13.79c-2.02,3.79-4.86,6.62-8.49,8.49-6.65,3.22-14.98,4.83-25,4.83s-19.65-2.91-28.9-8.72Z"/><path d="M553.32,457.03c6.65,2.91,9.97,6.49,9.97,10.75,0,1.77-.83,4.6-2.49,8.49-1.66,3.89-3.06,7.3-4.21,10.2l-17.14,41.75c-1.56,4.57-4.15,7.79-7.79,9.66-1.56,.73-3.53,1.09-5.92,1.09s-4.7-.91-6.93-2.73c-2.23-1.82-3.71-3.66-4.44-5.53l-1.25-2.65c-.83-2.08-3.89-10.18-9.19-24.3-1.04,2.49-2.57,6.57-4.59,12.23-2.03,5.66-3.33,9.19-3.89,10.59-.57,1.4-.93,2.34-1.09,2.8-.16,.47-.6,1.32-1.32,2.57-.73,1.25-1.56,2.34-2.49,3.27-2.49,2.49-5.35,3.74-8.57,3.74s-5.92-.91-8.1-2.73c-2.18-1.82-3.64-3.66-4.36-5.53l-23.52-57.33c-1.04-3.12-1.56-5.14-1.56-6.08,0-4.15,2.96-7.42,8.88-9.81,3.32-1.35,6.02-2.03,8.1-2.03s3.76,.44,5.06,1.32c1.3,.88,2.21,1.77,2.73,2.65,.52,.88,.93,1.79,1.25,2.73,1.76,4.15,5.45,13.92,11.06,29.29l9.19-25.24c.62-2.08,1.76-3.89,3.43-5.45,3.01-3.01,6.08-4.52,9.19-4.52s5.79,.83,8.02,2.49c2.23,1.66,3.76,3.33,4.6,4.99l1.25,2.65c5.19,14.54,8.26,22.85,9.19,24.92l9.5-25.86c2.49-6.64,6.23-9.97,11.22-9.97,1.97,0,4.05,.52,6.23,1.56Z"/><path d="M579.49,466.69c8.72-8.1,18.69-12.15,29.91-12.15s21.13,4.03,29.75,12.07c8.62,8.05,12.93,18.3,12.93,30.77,0,8.62-2.23,16.28-6.7,22.98-4.47,6.7-9.89,11.63-16.28,14.8-6.39,3.17-13.01,4.75-19.86,4.75s-13.5-1.69-19.94-5.06c-6.44-3.37-11.87-8.36-16.28-14.95-4.42-6.59-6.62-14.04-6.62-22.35,0-12.46,4.36-22.74,13.08-30.84Zm19.47,41.98c3.32,2.55,6.7,3.82,10.13,3.82s6.85-1.3,10.28-3.89c3.43-2.59,5.14-6.44,5.14-11.53s-1.61-8.88-4.83-11.37c-3.22-2.49-6.7-3.74-10.44-3.74s-7.22,1.3-10.44,3.89c-3.22,2.6-4.83,6.41-4.83,11.45s1.66,8.83,4.99,11.37Z"/><path d="M717.98,457.34c1.97,.62,3.61,1.69,4.91,3.19,1.3,1.51,1.95,3.92,1.95,7.24s-.99,6.96-2.96,10.9c-1.97,3.95-4.83,5.92-8.57,5.92-1.87,0-3.66-.41-5.37-1.25-1.71-.83-3.97-1.25-6.78-1.25s-5.43,.99-7.87,2.96c-2.44,1.97-3.66,4.36-3.66,7.17v32.71c0,2.39-.08,4.18-.23,5.37-.16,1.2-.65,2.57-1.48,4.13-1.56,2.7-5.61,4.05-12.15,4.05-4.99,0-8.57-.88-10.75-2.65-1.66-1.45-2.6-3.68-2.8-6.7v-59.2c0-2.39,.08-4.18,.23-5.37,.16-1.19,.6-2.52,1.32-3.97,1.45-2.8,5.5-4.21,12.15-4.21,6.23,0,10.13,1.2,11.68,3.58,1.14,1.66,1.71,3.38,1.71,5.14,.52-.72,1.27-1.61,2.26-2.65,.99-1.04,3.09-2.44,6.31-4.21,3.22-1.76,6.05-2.65,8.49-2.65s4.49,.13,6.15,.39c1.66,.26,3.48,.7,5.45,1.32Z"/><path d="M781.07,483.98l-10.13-.62v21.5c0,2.8,.44,4.83,1.32,6.08,.88,1.25,2.54,1.87,4.99,1.87s4.31,.08,5.61,.23c1.3,.16,2.67,.65,4.13,1.48,2.39,1.35,3.58,4.83,3.58,10.44,0,6.54-1.46,10.54-4.36,12-1.56,.73-2.94,1.17-4.13,1.32-1.2,.16-2.94,.23-5.22,.23-10.8,0-19-2.44-24.61-7.32-5.61-4.88-8.41-13.14-8.41-24.77v-23.05c-1.97,.31-4.1,.47-6.39,.47s-4.18-.88-5.69-2.65c-1.51-1.76-2.26-4.78-2.26-9.04s.26-7.35,.78-9.27c.52-1.92,1.25-3.29,2.18-4.13,1.66-1.35,3.74-2.03,6.23-2.03l5.14,.62v-16.04c0-2.39,.08-4.15,.23-5.3,.16-1.14,.65-2.39,1.48-3.74,1.35-2.59,5.35-3.89,12-3.89,7.06,0,11.27,1.92,12.62,5.76,.52,1.66,.78,4.31,.78,7.95v15.27c4.57-.41,8.02-.62,10.36-.62s4.1,.08,5.3,.23c1.19,.16,2.57,.65,4.13,1.48,2.7,1.35,4.05,5.35,4.05,12s-1.4,10.54-4.21,12c-1.56,.73-2.94,1.17-4.13,1.32-1.19,.16-2.99,.23-5.37,.23Z"/><path d="M848.83,456.72c10.38,0,19.03,3.95,25.94,11.84,6.91,7.89,10.36,17.55,10.36,28.97v27.42c0,2.39-.08,4.18-.23,5.37-.16,1.2-.65,2.57-1.48,4.13-1.35,2.7-5.35,4.05-12,4.05s-10.28-1.35-11.84-4.05c-.83-1.56-1.32-2.96-1.48-4.21-.16-1.25-.23-3.12-.23-5.61v-27.26c0-4.26-1.2-7.58-3.58-9.97-2.39-2.39-5.43-3.58-9.11-3.58s-6.93,1.12-9.74,3.35c-2.8,2.23-4.42,4.75-4.83,7.56v30.22c0,2.39-.08,4.18-.23,5.37-.16,1.2-.65,2.57-1.48,4.13-1.35,2.7-5.35,4.05-12,4.05s-10.54-1.4-12-4.21c-.73-1.56-1.17-2.91-1.32-4.05-.16-1.14-.23-2.96-.23-5.45v-93.16c0-2.39,.08-4.18,.23-5.37,.16-1.19,.6-2.52,1.32-3.97,1.45-2.8,5.5-4.21,12.15-4.21s10.49,1.4,11.84,4.21c.83,1.56,1.32,2.94,1.48,4.13,.16,1.2,.23,2.99,.23,5.38v34.43c5.19-6.33,11.27-9.5,18.23-9.5Z"/></g></g></g></svg>