<?xml version="1.0" encoding="UTF-8"?><svg xmlns="http://www.w3.org/2000/svg" viewBox="0 0 897.59 706.7"><defs><style>.d{font-family:FredokaOne-Regular, Fredoka One;font-size:155.78px;}.e{letter-spacing:-.02em;}.f{letter-spacing:-.03em;}</style></defs><g id="a"/><g id="b"><g id="c"><g><path d="M166.75,391.39c2.48,6.04,11.21,16.38,11.21,16.38l19.4,17.68c5.5,5.15,10.94,9.46,16.22,13.09,6.16,.1,11.42,1.14,15.71,3.14,4.78-2.1,9.9-3.16,15.3-3.16,15.41,0,28.94,6.2,39.14,17.93,.93,1.07,1.81,2.17,2.65,3.29,1.04-1.28,2.13-2.54,3.3-3.77,13.68-14.43,28.01-17.46,37.62-17.46,5.37,0,10.47,.94,15.19,2.8,4.23-2.07,9.26-3.11,15.03-3.11,6.08,0,10.66,.58,14.41,1.83,4.17,1.39,7.77,3.77,10.57,6.87,.19-.15,.39-.3,.58-.45,8.79-6.4,20.45-9.51,35.65-9.51,9.8,0,19.84,2.29,29.83,6.8,1.73-1.03,3.66-2,5.83-2.88,5.46-2.22,10.26-3.3,14.65-3.3,5.63,0,10.63,1.46,14.88,4.34,2.41,1.64,4.44,3.48,6.07,5.49,7.78-7.46,15.66-9.05,20.96-9.05,6.84,0,13.22,2.06,18.46,5.95,1.48,1.1,2.82,2.24,4.02,3.41,7.43-8.94,16.83-10.13,21.29-10.13s9.03,1.05,13.48,3.13c5.45,2.42,9.47,5.27,12.41,8.24,5.61-4.25,11.63-7.41,17.99-9.46,11.11-38.61-4.42-64.91-4.42-64.91-.54-4.74-15.74-19.29-15.74-19.29,5.18-7.11,3.78-10.56,3.78-10.56,.11-4.85-4.63-10.13-4.63-10.13,2.15-.86,2.26-1.08,2.26-1.08,16.82-2.81,18.86-7.22,18.86-7.22,3.56-.43-1.51-6.47-1.51-6.47-4.1-3.66-8.51-13.15-8.51-13.15,5.39,4.85,14.23,10.02,14.23,10.02,11.75,7.97,23.5,5.06,23.5,5.06,13.68-8.08,27.8-12.29,27.8-12.29,16.81-6.36,12.94-10.88,12.94-10.88-7.87-1.29-18.11-6.25-18.11-6.25-7.44-4.85-14.44-7.11-14.44-7.11-5.5-4.1-7.54-4.42-7.54-4.42-2.26-2.05-6.79-4.1-6.79-4.1-2.58-1.51-3.23-2.69-3.23-2.69,2.26,1.19,4.95,1.62,4.95,1.62,6.26,2.8,31.04,2.26,31.04,2.26,18.75-1.72,.65-10.99,.65-10.99-10.45-3.78-30.39-20.37-30.39-20.37-4.42-5.39-30.82-23.28-30.82-23.28l-21.34-16.27c-23.28-24.68-47.99-31.28-47.99-31.28,4.04-5.82,4.69-12.53,4.69-12.53-.89-6.06-16.32-12.45-16.32-12.45,3.72-3.64,4.12-8,4.12-8,8.16-4.2,7.97-11.07,7.97-11.07,39.12-2.8,64.45-52.38,64.45-52.38,10.78,2.91,17.68-3.67,17.68-3.67,11.96-7.33-4.31-29.42-4.31-29.42,8.4-8.08-.76-19.72-.76-19.72-10.34-10.88-22.74-2.37-22.74-2.37C533.01-10.18,510.11,2.16,510.11,2.16c-8.62,2.53-8.57,9.76-8.57,9.76-.49,5.66,7.17,17.03,7.17,17.03-12.29,9.97-21.61,30.29-21.61,30.29-13.79,31.47,1.08,53.91,1.08,53.91-2.58,1.21-4.69,5.74-4.69,5.74-13.99,5.33-11.32,25.62-11.32,25.62-7.44,.16-9.05,2.18-9.05,2.18-4.6,6.95-6.06,14.06-6.06,14.06-12.04-2.02-25.78,7.54-25.78,7.54-17.25,11.21-86,25.43-110.15,26.08-24.15,.65-45.05,12-45.05,12l.73,4.59h-.04l-.68,.77-5.22,.19c-20.91,9.05-16.06,14.55-16.06,14.55,6.04,10.24,33.48,10.2,33.48,10.2l-1.36,.47c-26.41,9.59-41.61,17.24-41.61,17.24,3.88,20.81,44.84,25.76,44.84,25.76,10.56,9.17,23.28,11.21,23.28,11.21-5.06,10.56-8.51,26.51-8.51,26.51-3.24,2.37-10.13,4.42-10.13,4.42l7.01,6.25c-3.56,10.13-4.31,21.02-4.31,21.02-5.82-4.42-9.7-12.61-9.7-12.61,.22,3.88-3.23,11.1-3.23,11.1-8.62,20.92-5.93,24.15-5.93,24.15,6.15,6.79,4.31,8.19,4.31,8.19-3.01,.33-4.42,1.29-4.42,1.29-4.31,2.8-20.69,3.99-20.69,3.99-10.99,2.58-42.68-5.28-42.68-5.28-11.64-4.1-29.32-5.93-29.32-5.93-20.04-.86-26.73,4.74-26.73,4.74-1.94,.86-.97,3.34-.97,3.34,5.28,4.2,8.62,8.84,8.62,8.84Z"/><path d="M546.25,602.26c5.71,15.36,10.24,19.5,10.24,19.5,1.14,1.29,2.75,.65,2.75,.65,1.72-2.69,3.29-6.09,3.29-6.09,6.31-8.24,8.08-16.81,8.08-16.81,5.98-10.51,14.06-42.19,14.06-42.19,1.24-3.1,2.06-5.9,2.61-8.24-8.34-4.7-15.46-11.35-21.15-19.85-.14-.21-.28-.43-.42-.65l-2.25,5.47c-3.06,8.58-8.64,15.14-16.15,19l-.61,.3c-3.89,1.81-8.36,2.73-13.31,2.73-6.42,0-12.64-2.3-17.98-6.66-1.35-1.09-2.58-2.24-3.69-3.42-.38,.42-.76,.82-1.15,1.22-5.8,5.8-13.04,8.87-20.94,8.87-7.31,0-13.98-2.35-19.31-6.79-4.23-3.52-7.3-7.52-9.15-11.9-3.58,5.52-8.32,9.84-14.16,12.85l-.38,.19c-9.01,4.37-19.99,6.58-32.63,6.58-9.3,0-18.38-1.88-27.1-5.58-2.92,9.35-8.23,17.54-15.77,24.19-11.56,10.19-24.89,15.35-39.61,15.35-10.77,0-21.15-2.64-30.86-7.84-4.94-2.65-19.98-10.71-19.98-25.86,0-1.31,.09-2.61,.24-3.88-1.42,.49-2.97,.91-4.64,1.24,3.86,14.36,9.61,31.15,16.75,38.5,13.66,14.06,22.71,20.12,21.74,18.35-.97-1.78-1.05-12.45-1.05-12.45,0,0,7.19,10.91,22.47,18.59s8.81,18.91,8.81,18.91c-2.67,6.22-16.09,17.54-16.09,17.54-13.74-1.7-21.34,6.14-21.34,6.14-9.94,8.65-8,14.55-8,14.55,2.02,.64,4.04-.41,4.04-.41,6.47-2.42,20.61-1.62,20.61-1.62-.49,.57-.73,1.94-.73,1.94-2.34,19.88,2.18,20.29,2.18,20.29,4.36-3.89,12.53-7.12,12.53-7.12,5.57-1.21,15.52-4.45,15.52-4.45,.73,16.65,5.5,16.57,5.5,16.57,1.62-2.26,8.97-6.47,8.97-6.47,6.87-3.48,18.99-13.01,18.99-13.01,8.17-4.53,11.32-9.38,11.32-9.38,8.4-7.35-2.4-34.38-2.4-34.38,.97-4.74,5.63-12.67,5.63-12.67,13.34,14.8,17.87,14.39,17.87,14.39l17.95-28.61c13.9-.65,21.67,2.83,21.67,2.83,15.28,5.66,21.74,25.22,21.74,25.22,2.42,5.66,8.65,9.3,8.65,9.3-.49,1.46-.57,2.75-.57,2.75-2.18,14.71,7.44,25.54,7.44,25.54,0,0,5.01,7.52,10.1,17.22,5.09,9.7,7.76,13.98,7.76,13.98h1.22c1.53-2.12,3.23-4.12,3.23-4.12,8-11.08,5.58-22.31,5.58-22.31l1.37,.24c2.75,2.42,12.37,7.6,12.37,7.6,9.13,4.45,13.33,10.75,13.33,10.75,1.05,.89,1.53,.41,1.53,.41,6.31-11.48,1.86-22.63,1.86-22.63,8.65,1.78,19.72,10.75,19.72,10.75,1.61,1.38,2.18,0,2.18,0,4.77-10.99,.89-20.29,.89-20.29-.89-9.14-19.56-13.74-19.56-13.74-6.06-2.02-8.73-3.8-8.73-3.8-8.49-7.03-10.1-16.81-10.1-16.81,1.54-2.66,2.18-5.41,2.18-5.41,1.53-2.18,.84-14.77,.84-14.77,1.08-7.97,3.99-10.29,3.99-10.29Z"/></g><text class="d" transform="translate(0 538.5)"><tspan x="0" y="0">Pang</tspan><tspan class="f" x="376.82" y="0">s</tspan><tspan class="e" x="448.32" y="0">w</tspan><tspan x="568.74" y="0">orth</tspan></text></g></g></svg>