<?xml version="1.0" encoding="UTF-8"?><svg id="a" xmlns="http://www.w3.org/2000/svg" viewBox="0 0 705.36 975.38"><path d="M165.29,291.06l-1-6.31s28.74-15.61,61.93-16.5,127.7-20.44,151.41-35.85c0,0,18.89-13.15,35.44-10.37,0,0,2-9.78,8.33-19.33,0,0,2.22-2.78,12.44-3,0,0-3.67-27.89,15.56-35.22,0,0,2.89-6.22,6.44-7.89,0,0-20.44-30.85-1.48-74.11,0,0,12.81-27.93,29.7-41.63,0,0-10.52-15.63-9.85-23.41,0,0-.07-9.93,11.78-13.41,0,0,31.48-16.96,93.26,30.15,0,0,17.04-11.7,31.26,3.26,0,0,12.59,16,1.04,27.11,0,0,22.37,30.37,5.93,40.44,0,0-9.48,9.04-24.3,5.04,0,0-34.81,68.15-88.59,72,0,0,.26,9.44-10.96,15.22,0,0-.56,6-5.67,11,0,0,21.22,8.78,22.44,17.11,0,0-.89,9.22-6.44,17.22,0,0,33.96,9.07,65.96,43l29.33,22.37s36.3,24.59,42.37,32c0,0,27.41,22.81,41.78,28,0,0,24.89,12.74-.89,15.11,0,0-34.07,.74-42.67-3.11,0,0-3.7-.59-6.81-2.22,0,0,.89,1.63,4.44,3.7,0,0,6.22,2.81,9.33,5.63,0,0,2.81,.44,10.37,6.07,0,0,9.63,3.11,19.85,9.78,0,0,14.07,6.81,24.89,8.59,0,0,5.33,6.22-17.78,14.96,0,0-19.41,5.78-38.22,16.89,0,0-16.15,4-32.3-6.96,0,0-12.15-7.11-19.56-13.78,0,0,6.07,13.04,11.7,18.07,0,0,6.96,8.3,2.07,8.89,0,0-2.81,6.07-25.93,9.93,0,0-.15,.3-3.11,1.48,0,0,6.52,7.26,6.37,13.93,0,0,1.93,4.74-5.19,14.52,0,0,20.89,20,21.63,26.52,0,0,24.89,42.07,1.78,102.07,0,0,2.67,104-9.78,128,0,0-.22,8.89-5.11,21.11,0,0-11.11,43.56-19.33,58,0,0-2.44,11.78-11.11,23.11,0,0-2.15,4.67-4.52,8.37,0,0-2.22,.89-3.78-.89,0,0-6.22-5.7-14.07-26.81,0,0-4,3.19-5.48,14.15,0,0,.96,17.3-1.15,20.3,0,0-.89,3.78-3,7.44,0,0,2.22,13.44,13.89,23.11,0,0,3.67,2.44,12,5.22,0,0,25.67,6.33,26.89,18.89,0,0,5.33,12.78-1.22,27.89,0,0-.78,1.89-3,0,0,0-15.22-12.33-27.11-14.78,0,0,6.11,15.33-2.56,31.11,0,0-.67,.67-2.11-.56,0,0-5.78-8.67-18.33-14.78,0,0-13.22-7.11-17-10.44l-1.89-.33s3.33,15.44-7.67,30.67c0,0-2.33,2.76-4.44,5.67h-1.67s-3.67-5.89-10.67-19.22-13.89-23.67-13.89-23.67c0,0-13.22-14.89-10.22-35.11,0,0,.11-1.78,.78-3.78,0,0-8.56-5-11.89-12.78,0,0-8.89-26.89-29.89-34.67,0,0-10.67-4.78-29.78-3.89l-24.67,39.33s-6.22,.56-24.56-19.78c0,0-6.41,10.89-7.74,17.41,0,0,14.85,37.15,3.3,47.26,0,0-4.33,6.67-15.56,12.89,0,0-16.67,13.11-26.11,17.89,0,0-10.11,5.78-12.33,8.89,0,0-6.56,.11-7.56-22.78,0,0-13.67,4.44-21.33,6.11,0,0-11.22,4.44-17.22,9.78,0,0-6.22-.56-3-27.89,0,0,.33-1.89,1-2.67,0,0-19.44-1.11-28.33,2.22,0,0-2.78,1.44-5.56,.56,0,0-2.67-8.11,11-20,0,0,10.44-10.78,29.33-8.44,0,0,18.44-15.56,22.11-24.11,0,0,8.89-15.44-12.11-26s-30.89-25.56-30.89-25.56c0,0,.11,14.67,1.44,17.11s-11.11-5.89-29.89-25.22-30.56-86.22-30.56-86.22c0,0-5.22-26.93-3.44-100.41,0,0-46.81,3.56-97.48-43.85l-26.67-24.3s-12-14.22-15.41-22.52c0,0-4.59-6.37-11.85-12.15,0,0-1.33-3.41,1.33-4.59,0,0,9.19-7.7,36.74-6.52,0,0,24.3,2.52,40.3,8.15,0,0,43.56,10.81,58.67,7.26,0,0,22.52-1.63,28.44-5.48,0,0,1.93-1.33,6.07-1.78,0,0,2.52-1.93-5.93-11.26,0,0-3.7-4.44,8.15-33.19,0,0,4.74-9.93,4.44-15.26,0,0,5.33,11.26,13.33,17.33,0,0,1.04-14.96,5.93-28.89l-9.63-8.59s9.48-2.81,13.93-6.07c0,0,4.74-21.93,11.7-36.44,0,0-17.48-2.81-32-15.41,0,0-56.3-6.81-61.63-35.41,0,0,20.89-10.52,57.19-23.7l1.87-.65s-37.72,.06-46.02-14.02c0,0-6.67-7.56,22.07-20l7.17-.26,.94-1.07Z"/></svg>