<svg xmlns="http://www.w3.org/2000/svg" viewBox="0 0 476.1 463.63"><g id="Layer_2" data-name="Layer 2"><g id="Layer_1-2" data-name="Layer 1"><path d="M293,0c5.1,53-76.69,71.94,3.81,131C275.84,63.15,336.8,50.06,293,0ZM119.56,43.12c2.86,58.91-8,101-34.09,137l-.5.28c1.42-29-14.34-52.78-32.1-75.9,2.89,39.21-4,78.4-20.15,117.56C11.93,245.89,0,273.74,0,303.47c0,88.46,105.59,160.16,235.88,160.16s235.9-71.7,235.9-160.16a111,111,0,0,0-4-29.5c-6.37-30.33-7.76-49.57-.31-59.15,12.08-15.54,11.65-39.39-2.41-62.41C457.51,200.47,426,182.53,402,98.69c-28,95-72.27-4.39-58.4-53.16-26.26,21.6-29.63,70-28.22,107.13-5.72-1.39-11.53-2.66-17.44-3.75-44.64-15.22-78.63-56.63-62.38-86.82-22,10.27-24.77,32.17-16.37,57.22,19.21,57.34-56.7-10.13-53.72-56.06l-17.09,72.69c-.16-34.48-5.85-73.93-28.82-92.81ZM235.88,180.19c109.05,0,197.46,60,197.46,134.06,0,22.19-7.93,43.13-22,61.56-15.43,6.88-24-22.34-25.53-41.47-16.12,20.59-.57,58.92-17.4,75.07-2.13-10.25-12-23-25.35-30.75,2.11,22.2-4,43.33-29.72,58.93-31.15,5.69-44.43-28.71-49.56-54.22-4,33.51-16,59-50,64.1-4.06-.31-8.1-.69-12.09-1.16-30.51-18.39-20.63-49.43-24.25-78.59-2.93,29.5-24.44,65.4-39,56.16-25.68-16.3,10.89-33.55-9.53-63.66-2.42,30.19-21.75,31.48-42,29.87.94-14.19,1.72-28.35-2.75-41.25-9.14,7.68-18,15.84-34.57,9.94a96.16,96.16,0,0,1-11.15-44.53c0-74.05,88.38-134.06,197.43-134.06Z"/><path d="M404.84,276.12H277.28L238,193.06,198.8,276.12H71.24l103.14,51.69-39.5,83.6L238,359.71l103.16,51.7-39.51-83.6Zm-62.36,14-47.39,23.74-11.21-23.74ZM238,238.25l17.88,37.86H220.15ZM133.6,290.09h58.6L181,313.83Zm40,84.65,18.08-38.28,29.15,14.61Zm24.69-52.25,15.3-32.4h49l15.3,32.4L238,342.43Zm104.24,52.25-47.2-23.67,29.15-14.61ZM274.94,242.89l-7.56-16c34.35,5.41,64.18,20,82.91,40.51H325.38c-13.17-11.24-30.64-19.73-50.44-24.5Zm-129,116.86-7.56,16c-24.87-19.5-36.45-45.37-31.85-71.11l19.36,9.69v1.42c0,15.73,7,31.09,20,44Zm128.44,29,19.32,9.68a187.68,187.68,0,0,1-111.33,0l19.32-9.68a161,161,0,0,0,72.69,0ZM150.7,267.39H125.79c18.74-20.53,48.56-35.1,82.91-40.51l-7.56,16C181.34,247.66,163.87,256.15,150.7,267.39Zm219.83,48.35c0,22.08-11.65,43.4-32.83,60l-7.55-16c13.09-12.9,20.1-28.25,20.07-44v-1.42l19.35-9.69a62.92,62.92,0,0,1,1,11.11Z"/></g></g></svg>